<svg width="16" height="15" viewBox="0 0 16 15" fill="none" xmlns="http://www.w3.org/2000/svg">
<g clip-path="url(#clip0_10_512)">
<path fill-rule="evenodd" clip-rule="evenodd" d="M15.618 9.13505V14.9023H12.2502V9.51392C12.2502 8.16682 11.7871 7.24069 10.5663 7.24069C9.6402 7.24069 9.09294 7.87214 8.84036 8.4615C8.75616 8.67198 8.71407 8.96667 8.71407 9.26134V14.9023H5.34632C5.34632 14.9023 5.38841 5.76729 5.34632 4.84116H8.71407V6.27246C8.71407 6.27246 8.71407 6.31455 8.67197 6.31455H8.71407V6.27246C9.17714 5.5989 9.93488 4.58858 11.745 4.58858C13.9341 4.58858 15.618 6.06197 15.618 9.13505ZM1.89436 0C0.757744 0 0 0.757747 0 1.72598C0 2.6942 0.715649 3.45196 1.85226 3.45196H1.89436C3.07308 3.45196 3.78873 2.69421 3.78873 1.72598C3.74663 0.757747 3.03098 0 1.89436 0ZM0.168383 14.9023H3.49405V4.84116H0.168383V14.9023Z" fill="#3A3B3D"/>
</g>
<defs>
<clipPath id="clip0_10_512">
<rect width="15.618" height="14.9023" fill="white"/>
</clipPath>
</defs>
</svg>
