<svg width="16" height="16" viewBox="0 0 16 16" fill="none" xmlns="http://www.w3.org/2000/svg">
<g clip-path="url(#clip0_10_503)">
<g clip-path="url(#clip1_10_503)">
<path fill-rule="evenodd" clip-rule="evenodd" d="M7.77188 0C8.81088 0.0371094 9.88698 0.0371094 10.926 0.0742159C11.8537 0.111321 12.7071 0.259751 13.5235 0.742144C14.5625 1.37297 15.1933 2.30065 15.4159 3.48807C15.5273 4.19311 15.5644 4.93525 15.6015 5.64029C15.6386 7.19879 15.6015 8.75729 15.6015 10.3158C15.6015 11.1321 15.5644 11.9485 15.3046 12.7277C14.7851 14.2491 13.709 15.1768 12.1505 15.4737C11.4455 15.6221 10.7033 15.6221 9.99831 15.6592C8.4398 15.6963 6.91841 15.6592 5.35991 15.6592C4.54356 15.6592 3.7272 15.6221 2.94796 15.3624C1.42656 14.8429 0.498884 13.7667 0.202026 12.2083C0.0536001 11.5032 0.0536001 10.7611 0.0164926 10.056C-0.0206158 8.49754 0.0164926 6.93904 0.0164926 5.38054C0.0164926 4.56418 0.0536001 3.74782 0.313349 2.96857C0.83285 1.44718 1.90895 0.519504 3.46745 0.222645C4.17249 0.0742207 4.91463 0.0742207 5.61967 0.0371094C6.3247 0 7.02973 0 7.77188 0ZM14.1914 7.68118C14.1914 7.68118 14.1543 7.68118 14.1914 7.68118C14.1543 7.05036 14.1543 6.45664 14.1543 5.82582C14.1543 5.23211 14.1172 4.63839 14.043 4.04468C13.8946 2.70882 13.1153 1.81825 11.8166 1.5585C11.1486 1.41007 10.4065 1.41007 9.73855 1.41007C8.4027 1.37297 7.10395 1.37297 5.7681 1.41007C5.10017 1.41007 4.43224 1.44718 3.80142 1.5585C2.6882 1.74404 1.90895 2.37486 1.57499 3.48807C1.46367 3.85914 1.42656 4.23022 1.38946 4.60128C1.35235 6.01136 1.35235 7.42143 1.35235 8.8315C1.35235 9.72207 1.38946 10.6498 1.46367 11.5403C1.57499 12.8762 2.39135 13.8039 3.72721 14.0265C4.39513 14.1378 5.10017 14.1749 5.8052 14.1749C7.10395 14.212 8.4027 14.1749 9.73855 14.1749C10.3323 14.1749 10.926 14.1378 11.5197 14.0636C12.0763 14.0265 12.5958 13.841 13.0411 13.4699C13.7832 12.8762 14.043 12.0969 14.0801 11.2064C14.1543 10.0931 14.1543 8.90572 14.1914 7.68118Z" fill="#3A3B3D"/>
<path fill-rule="evenodd" clip-rule="evenodd" d="M11.7793 7.82984C11.7793 10.0563 9.99816 11.8374 7.77173 11.8374C5.5453 11.8374 3.76416 10.0563 3.76416 7.79274C3.76416 5.60341 5.58241 3.82227 7.80883 3.82227C9.99816 3.82227 11.7793 5.60341 11.7793 7.82984ZM7.77173 10.4273C9.1818 10.4273 10.3692 9.23991 10.3692 7.82984C10.3692 6.41977 9.1818 5.23233 7.77173 5.23233C6.32455 5.23233 5.17423 6.41977 5.17423 7.82984C5.13712 9.23991 6.32455 10.4273 7.77173 10.4273Z" fill="#3A3B3D"/>
<path d="M12.8556 3.63666C12.8556 4.15616 12.4474 4.60145 11.9279 4.60145C11.4084 4.60145 10.9631 4.15616 11.0002 3.63666C11.0002 3.11716 11.4084 2.70898 11.9279 2.70898C12.4474 2.70898 12.8556 3.11716 12.8556 3.63666Z" fill="#3A3B3D"/>
</g>
</g>
<defs>
<clipPath id="clip0_10_503">
<rect width="15.618" height="15.6757" fill="white"/>
</clipPath>
<clipPath id="clip1_10_503">
<rect width="15.618" height="15.6757" fill="white"/>
</clipPath>
</defs>
</svg>
