<svg width="16" height="14" viewBox="0 0 16 14" fill="none" xmlns="http://www.w3.org/2000/svg">
<path fill-rule="evenodd" clip-rule="evenodd" d="M16 1.65896C15.3976 1.9422 14.7953 2.14451 14.1176 2.22543C14.7953 1.78035 15.3224 1.09249 15.5482 0.283238C14.9082 0.687861 14.1929 0.971097 13.4776 1.13295C12.8753 0.445084 12.0094 0 11.0682 0C9.26118 0 7.79294 1.57803 7.79294 3.52023C7.79294 3.80347 7.83059 4.0867 7.86823 4.32949C5.12 4.16763 2.71059 2.79191 1.09176 0.647402C0.790587 1.17341 0.64 1.78035 0.64 2.42775C0.64 3.64162 1.20471 4.73411 2.10823 5.3815C1.58118 5.3815 1.05412 5.21966 0.602352 4.93642V4.97688C0.602352 6.6763 1.73176 8.13295 3.23765 8.45664C2.97411 8.53757 2.67294 8.57803 2.37176 8.57803C2.14588 8.57803 1.95765 8.53757 1.76941 8.49711C2.18353 9.91329 3.38824 10.9249 4.85647 10.9653C3.72706 11.8959 2.33412 12.4624 0.790587 12.4624C0.527059 12.4624 0.263532 12.4624 0 12.422C1.46824 13.4335 3.16235 14 5.0447 14C11.1059 14 14.3812 8.61849 14.3812 3.96532C14.3812 3.80347 14.3812 3.64162 14.3812 3.52023C15.0212 2.99423 15.5859 2.34682 16 1.65896V1.65896Z" fill="#4285F4"/>
</svg>
